<?xml version="1.0" encoding="UTF-8" standalone="no"?>
<!-- Created with Inkscape (http://www.inkscape.org/) -->

<svg
   xmlns:dc="http://purl.org/dc/elements/1.1/"
   xmlns:cc="http://creativecommons.org/ns#"
   xmlns:rdf="http://www.w3.org/1999/02/22-rdf-syntax-ns#"
   xmlns:svg="http://www.w3.org/2000/svg"
   xmlns="http://www.w3.org/2000/svg"
   xmlns:sodipodi="http://sodipodi.sourceforge.net/DTD/sodipodi-0.dtd"
   xmlns:inkscape="http://www.inkscape.org/namespaces/inkscape"
   version="1.1"
   id="svg75"
   width="1066.6667"
   height="1066.6667"
   viewBox="0 0 1066.6667 1066.6667"
   sodipodi:docname="dislike.svg"
   inkscape:version="0.92.3 (2405546, 2018-03-11)">
  <metadata
     id="metadata81">
    <rdf:RDF>
      <cc:Work
         rdf:about="">
        <dc:format>image/svg+xml</dc:format>
        <dc:type
           rdf:resource="http://purl.org/dc/dcmitype/StillImage" />
        <dc:title></dc:title>
      </cc:Work>
    </rdf:RDF>
  </metadata>
  <defs
     id="defs79" />
  <sodipodi:namedview
     pagecolor="#ffffff"
     bordercolor="#666666"
     borderopacity="1"
     objecttolerance="10"
     gridtolerance="10"
     guidetolerance="10"
     inkscape:pageopacity="0"
     inkscape:pageshadow="2"
     inkscape:window-width="1440"
     inkscape:window-height="835"
     id="namedview77"
     showgrid="false"
     inkscape:zoom="0.31289473"
     inkscape:cx="668.18624"
     inkscape:cy="553.08728"
     inkscape:window-x="0"
     inkscape:window-y="0"
     inkscape:window-maximized="1"
     inkscape:current-layer="svg75" />
  <path
     style="fill:#538cfc;stroke-width:1.33333337"
     d="m 483.33335,1055.3673 c -32.20738,-2.9819 -56.42611,-7.406 -88.66667,-16.1969 -23.95956,-6.533 -26.83055,-7.4501 -44.66667,-14.2683 -57.24772,-21.884 -94.24144,-43.17907 -150.95952,-86.8984 -14.02535,-10.81099 -57.44431,-54.24394 -70.4824,-70.5051 -17.96753,-22.40917 -37.159316,-50.34032 -50.959718,-74.16524 -7.227814,-12.47804 -24.265037,-45.81548 -24.265037,-47.4804 0,-0.46967 -2.637837,-7.22872 -5.86186,-15.02011 -10.09114,-24.38692 -13.654202,-34.80628 -19.890815,-58.16616 -8.223662,-30.80256 -13.947886,-61.01162 -16.295888,-86 C 9.5458922,568.16082 8.5599129,521.20183 9.5770487,505.33335 13.747932,440.26281 24.246739,394.30241 49.324146,331.33334 63.980521,294.53136 95.87585,240.32643 121.96829,207.87733 170.85991,147.07467 229.02154,99.845143 298.00001,64.932645 356.68128,35.231933 423.96864,16.680321 494.66668,10.710228 c 44.90216,-3.7917605 108.87781,0.926116 152.66667,11.258383 21.68468,5.116645 39.05924,9.836541 47.33334,12.858365 4.03333,1.473034 13.03333,4.693388 20,7.15634 25.83752,9.134438 48.49648,19.733233 78,36.484729 26.82472,15.230527 40.06675,24.228685 71.4497,48.551125 18.69386,14.48813 61.04301,56.83728 75.53115,75.53114 30.33589,39.14204 45.50462,63.06883 65.21066,102.86165 9.0442,18.26328 11.1785,23.29516 20.0432,47.25472 26.3448,71.20496 36.9553,149.64111 30.4003,224.72774 -1.1174,12.79975 -2.8759,28.07227 -3.9077,33.93893 -1.0319,5.86667 -2.2695,13.66667 -2.7502,17.33334 -1.6104,12.28269 -15.0098,63.32674 -19.9505,76 -22.7862,58.44845 -26.9164,66.80211 -58.01084,117.33334 -3.15882,5.13333 -8.2401,12.63333 -11.29174,16.66666 -3.05165,4.03334 -9.02874,11.98627 -13.28244,17.67318 -25.1519,33.62642 -67.90513,75.07959 -102.55615,99.43755 -4.52033,3.17757 -10.31877,7.40364 -12.88544,9.39128 -10.33789,8.0057 -53.33392,33.05645 -71.09167,41.4201 -58.59889,27.5992 -125.03521,45.3841 -184.90834,49.4998 -23.02802,1.583 -70.49416,1.2081 -91.33333,-0.7213 z M 622.37259,850.67767 c 10.18055,-4.39631 18.18956,-13.81326 21.96895,-25.83096 2.72125,-8.65302 2.99181,-12.1661 2.99181,-38.84669 0,-29.86925 -0.58528,-35.97565 -6.77314,-70.66666 -4.22212,-23.67046 -7.19251,-33.13154 -15.98371,-50.91011 -3.88753,-7.86182 -6.73488,-14.8336 -6.32744,-15.49286 0.42784,-0.69225 28.97717,-1.0278 67.57921,-0.79425 l 66.83842,0.40436 11.81953,-4.99372 c 20.38062,-8.61076 33.6922,-18.80215 39.54599,-30.27651 7.68334,-15.0606 3.2815,-45.01505 -8.97672,-61.0864 -3.36504,-4.4118 -3.41687,-4.73355 -1.29755,-8.05625 9.11227,-14.28639 12.51875,-29.03232 10.33455,-44.73611 -1.7228,-12.38648 -5.24472,-20.4748 -12.20187,-28.02242 l -5.57213,-6.04505 3.21649,-4.99535 c 5.33964,-8.29264 6.70726,-12.53116 7.44122,-23.06169 1.3938,-19.99764 -7.70595,-36.62136 -22.80062,-41.65291 -0.69724,-0.23241 0.68062,-4.38017 3.06191,-9.21725 10.00473,-20.32251 5.10449,-49.12099 -9.9404,-58.41924 -4.29431,-2.65403 -6.25529,-2.68611 -162.15531,-2.65267 -109.62816,0.0235 -159.43674,0.47749 -163.14177,1.48697 -10.97617,2.99062 -10,-9.94549 -10,132.51937 0,121.94431 0.10094,127.21128 2.5753,134.40315 6.2269,18.09885 25.55032,51.4026 44.76912,77.15924 8.90248,11.93093 17.89672,21.74207 32.79451,35.77303 22.60009,21.28509 37.82933,37.46409 43.92721,46.66667 6.69547,10.10441 7.93387,16.6602 7.93387,42 0,25.42409 1.25626,32.0672 7.98533,42.22624 10.28535,15.52803 31.82228,21.13507 50.38724,13.11807 z M 390.40469,588.24826 c 1.68924,-0.96347 4.237,-3.66347 5.66168,-6 2.52291,-4.13766 2.59047,-8.02452 2.59532,-149.31446 0.004,-126.10022 -0.25549,-145.56994 -1.9874,-148.91907 -4.29425,-8.30417 -1.65966,-8.01472 -72.94992,-8.01472 h -65.01563 l -4.35436,3.89063 -4.35437,3.89062 V 432.527 581.27275 l 3.69305,3.69696 c 5.00141,5.00675 10.43847,5.3665 78.30695,5.1813 43.02915,-0.11747 56.0163,-0.54052 58.40468,-1.90275 z"
     id="path627"
     inkscape:connector-curvature="0" />
</svg>
