<?xml version="1.0" encoding="UTF-8" standalone="no"?>
<!-- Created with Inkscape (http://www.inkscape.org/) -->

<svg
   xmlns:dc="http://purl.org/dc/elements/1.1/"
   xmlns:cc="http://creativecommons.org/ns#"
   xmlns:rdf="http://www.w3.org/1999/02/22-rdf-syntax-ns#"
   xmlns:svg="http://www.w3.org/2000/svg"
   xmlns="http://www.w3.org/2000/svg"
   xmlns:sodipodi="http://sodipodi.sourceforge.net/DTD/sodipodi-0.dtd"
   xmlns:inkscape="http://www.inkscape.org/namespaces/inkscape"
   version="1.1"
   id="svg702"
   width="728"
   height="496"
   viewBox="0 0 728 496"
   sodipodi:docname="like.jpg.svg"
   inkscape:version="0.92.3 (2405546, 2018-03-11)">
  <metadata
     id="metadata708">
    <rdf:RDF>
      <cc:Work
         rdf:about="">
        <dc:format>image/svg+xml</dc:format>
        <dc:type
           rdf:resource="http://purl.org/dc/dcmitype/StillImage" />
        <dc:title></dc:title>
      </cc:Work>
    </rdf:RDF>
  </metadata>
  <defs
     id="defs706" />
  <sodipodi:namedview
     pagecolor="#ffffff"
     bordercolor="#666666"
     borderopacity="1"
     objecttolerance="10"
     gridtolerance="10"
     guidetolerance="10"
     inkscape:pageopacity="0"
     inkscape:pageshadow="2"
     inkscape:window-width="1440"
     inkscape:window-height="835"
     id="namedview704"
     showgrid="false"
     inkscape:zoom="1"
     inkscape:cx="397.1591"
     inkscape:cy="272.98878"
     inkscape:window-x="0"
     inkscape:window-y="0"
     inkscape:window-maximized="1"
     inkscape:current-layer="svg702" />
  <path
     style="fill:#f32b4b"
     d="m 316.5,494.86538 c -2.2,-0.51035 -8.05,-1.86174 -13,-3.00307 C 293.11338,489.46743 269.36914,480.95666 257,475.19507 215.6623,455.93984 174.66505,418.32718 148.87885,376 c -5.57477,-9.15078 -14.52978,-28.01511 -17.86916,-37.64258 -1.55339,-4.47841 -3.31682,-9.06278 -3.91874,-10.18747 -0.60192,-1.1247 -2.44549,-7.43927 -4.09683,-14.03238 -11.46011,-45.75543 -11.4176,-84.2537 0.14415,-130.55518 4.7322,-18.95112 17.3413,-48.71671 27.73811,-65.47983 12.63825,-20.377051 37.0408,-48.269614 56.31921,-64.373901 6.47496,-5.408879 24.93332,-18.106813 32.08787,-22.073985 2.6309,-1.458827 5.7809,-3.288882 7,-4.066789 3.94271,-2.515844 28.95813,-13.255663 38.21654,-16.407429 9.7726,-3.3268072 26.32323,-7.4492901 39,-9.7142465 11.08709,-1.98092741 70.22759,-2.01174345 83,-0.043248 41.21404,6.3519433 85.6251,26.5615405 118.5,53.9243485 9.60072,7.990978 23.46398,21.763374 32.74104,32.526452 21.50187,24.946068 40.25445,60.908418 49.34289,94.626238 6.61197,24.53025 6.41607,22.51505 6.41607,66 v 40 l -2.79956,12 c -4.44133,19.03721 -4.84134,20.44962 -8.7797,31 -9.46379,25.35237 -17.11602,40.63208 -28.79659,57.5 -17.0247,24.58538 -36.82392,45.0404 -61.12415,63.14869 -26.03041,19.39761 -64.19005,36.07969 -97,42.40506 -5.88959,1.13544 -16.84037,1.42375 -51,1.34273 -23.925,-0.0568 -45.3,-0.52075 -47.5,-1.0311 z M 379.26975,374.5492 c 52.95333,-26.7916 107.38903,-84.43804 124.5685,-131.91583 5.87677,-16.24124 7.72189,-33.77911 5.07098,-48.19971 -5.38026,-29.26792 -28.73374,-53.96662 -57.62535,-60.94472 -10.20655,-2.46515 -32.78164,-1.68681 -42.78388,1.4751 -15.83048,5.00434 -28.11981,15.00658 -37.48236,30.50675 -2.83353,4.69107 -5.46196,8.52921 -5.84094,8.52921 -0.37898,0 -2.71128,-3.47839 -5.18288,-7.72977 C 353.20729,154.59681 342.49201,144.22321 332,139.16905 320.93845,133.84054 311.86663,132 296.66452,132 c -14.439,0 -23.00997,1.99745 -34.72609,8.09284 -15.23598,7.92663 -26.68017,19.8413 -34.00904,35.40716 -11.8105,25.08445 -10.16987,50.8136 5.24995,82.33223 17.63743,36.0515 54.28165,75.85496 94.96704,103.15452 14.09918,9.46043 32.78374,19.01361 37.18518,19.01231 1.8511,-5.4e-4 7.64616,-2.26643 13.93819,-5.44986 z"
     id="path742"
     inkscape:connector-curvature="0" />
</svg>
