<?xml version="1.0" encoding="UTF-8" standalone="no"?>
<!-- Created with Inkscape (http://www.inkscape.org/) -->

<svg
   xmlns:dc="http://purl.org/dc/elements/1.1/"
   xmlns:cc="http://creativecommons.org/ns#"
   xmlns:rdf="http://www.w3.org/1999/02/22-rdf-syntax-ns#"
   xmlns:svg="http://www.w3.org/2000/svg"
   xmlns="http://www.w3.org/2000/svg"
   xmlns:sodipodi="http://sodipodi.sourceforge.net/DTD/sodipodi-0.dtd"
   xmlns:inkscape="http://www.inkscape.org/namespaces/inkscape"
   version="1.1"
   id="svg4065"
   width="555"
   height="188"
   viewBox="0 0 555 188"
   sodipodi:docname="logo.svg"
   inkscape:version="0.92.3 (2405546, 2018-03-11)">
  <metadata
     id="metadata4071">
    <rdf:RDF>
      <cc:Work
         rdf:about="">
        <dc:format>image/svg+xml</dc:format>
        <dc:type
           rdf:resource="http://purl.org/dc/dcmitype/StillImage" />
        <dc:title></dc:title>
      </cc:Work>
    </rdf:RDF>
  </metadata>
  <defs
     id="defs4069" />
  <sodipodi:namedview
     pagecolor="#ffffff"
     bordercolor="#666666"
     borderopacity="1"
     objecttolerance="10"
     gridtolerance="10"
     guidetolerance="10"
     inkscape:pageopacity="0"
     inkscape:pageshadow="2"
     inkscape:window-width="1440"
     inkscape:window-height="835"
     id="namedview4067"
     showgrid="false"
     inkscape:zoom="1.615516"
     inkscape:cx="267.24527"
     inkscape:cy="97.49932"
     inkscape:window-x="0"
     inkscape:window-y="0"
     inkscape:window-maximized="1"
     inkscape:current-layer="layer2" />
  <g
     inkscape:groupmode="layer"
     id="layer2"
     inkscape:label="Layer 1"
     style="display:inline">
    <path
       style="fill:#ce5435"
       d="m 252.5,187.35296 c -2.2,-0.24197 -5.41801,-1.09537 -7.15113,-1.89645 C 243.61575,184.65543 241.68532,184 241.05903,184 c -2.1774,0 -9.5988,-4.32349 -16.12902,-9.3963 -9.94596,-7.72623 -19.08466,-22.56981 -20.59366,-33.44939 -1.80395,-13.00605 -3.23843,-5.97666 -3.78941,18.56924 -0.27128,12.0851 -0.78308,22.72823 -1.13733,23.65142 -0.56814,1.48054 -2.31104,1.64587 -14.77686,1.40177 L 170.5,184.5 170,148 c -0.55474,-40.49624 -0.41597,-39.64599 -7.48371,-45.85156 C 159.07446,99.126484 158.57627,99 150.11524,99 c -8.14716,0 -9.11959,0.220526 -12.83249,2.91014 -2.2183,1.60692 -4.9724,4.88305 -6.15004,7.31572 C 129.07792,113.4705 129,114.93512 129,149.31572 V 185 h -14.89301 c -11.0571,0 -14.98508,-0.32196 -15.250467,-1.25 -0.196599,-0.6875 -0.132244,-19.025 0.143012,-40.75 L 99.5,103.5 l 3.70073,-7.550164 c 4.04637,-8.255355 12.37106,-17.342537 19.70199,-21.506578 14.54791,-8.263365 38.25088,-8.576633 53.53927,-0.707597 4.09399,2.107205 13.32495,10.982451 16.30415,15.675866 3.51015,5.529875 7.25111,17.116133 7.26917,22.513623 0.0167,4.98985 1.3578,8.19562 2.74702,6.56649 0.46508,-0.5454 1.39083,-3.24164 2.05721,-5.99164 2.0037,-8.26884 8.62187,-20.546565 14.68661,-27.245911 13.67616,-15.107214 35.82087,-21.197125 53.66851,-14.75912 3.80415,1.372233 8.55463,3.60801 10.55661,4.968393 6.1734,4.194936 6.26873,3.792282 6.26873,-26.478818 0,-23.488765 0.19391,-26.844977 1.58179,-27.377555 2.05905,-0.790133 24.77737,-0.790133 26.83642,0 1.41132,0.541575 1.58179,5.669542 1.58179,47.583333 0,32.290628 0.32744,46.867198 1.04741,46.627208 0.57607,-0.19202 2.38234,-4.16702 4.01392,-8.83333 4.63798,-13.264554 10.89982,-21.251472 22.83708,-29.128478 22.43573,-14.804603 52.97381,-12.637106 70.78614,5.024177 C 427.50961,91.630131 435,105.62225 435,113.35733 c 0,3.17756 -0.29517,3.41318 -9.25,7.38389 -13.72686,6.08671 -30.77227,13.34663 -34.75,14.8006 -1.925,0.70364 -8.225,3.28807 -14,5.74318 -5.775,2.45511 -11.45315,4.75683 -12.61812,5.11495 -1.16496,0.35811 -2.91457,1.53118 -3.88801,2.60682 -1.47884,1.6341 -1.55475,2.21495 -0.4616,3.53211 2.90414,3.49928 9.78558,6.51936 16.2249,7.12067 9.40415,0.87818 16.57053,-1.58249 22.82545,-7.8374 L 403.90476,147 h 14.9886 c 9.14956,0 15.23519,0.39898 15.62158,1.02417 0.34814,0.5633 -1.17542,4.76031 -3.38568,9.32671 -3.18559,6.5814 -5.50774,9.70725 -11.20181,15.07875 -6.69961,6.32007 -17.12618,12.56762 -20.97745,12.56958 -0.8525,4.3e-4 -2.05709,0.50788 -2.67686,1.12765 -1.64474,1.64474 -27.80271,1.74357 -29.43507,0.11121 C 366.15713,185.55713 364.8472,185 363.92712,185 c -5.84071,0 -23.22625,-11.08985 -28.77775,-18.35669 -5.01318,-6.56218 -9.76223,-16.05939 -11.64498,-23.28778 -0.81059,-3.11205 -1.71318,-5.89765 -2.00576,-6.19023 -0.97796,-0.97797 -2.12214,1.28692 -3.45277,6.8347 -2.61156,10.88837 -11.39434,25.00209 -19.09533,30.68574 -5.14877,3.80001 -15.30302,9.31141 -17.17201,9.32042 -0.70319,0.003 -2.55527,0.67207 -4.11574,1.48595 -2.95426,1.54083 -17.97363,2.65155 -25.16278,1.86085 z m 19.39837,-31.30166 c 13.35804,-6.74311 20.70422,-22.54833 16.71852,-35.96965 -5.39453,-18.16534 -20.05061,-26.901282 -36.00911,-21.463675 -9.26332,3.156335 -15.34075,11.351575 -18.52354,24.978485 -2.62241,11.22768 4.60717,26.06693 15.41576,31.64199 9.02186,4.65347 14.40327,4.84877 22.39837,0.81285 z M 374.5,114.53271 c 6.05,-2.55838 13.8125,-5.81735 17.25,-7.24217 3.4375,-1.42482 6.25,-3.11963 6.25,-3.76624 0,-1.918 -4.21584,-5.186841 -8.43383,-6.539351 -5.92909,-1.901176 -16.55701,-1.527093 -21.70436,0.763953 C 360.14219,101.18484 351,113.4747 351,120.41624 c 0,4.20817 -0.89394,4.43198 23.5,-5.88353 z M 33.872641,184.06235 C 28.612234,183.03612 20.098376,178.63202 15.093905,174.34838 10.53627,170.44722 3,156.74644 3,152.36191 3,151.12778 2.55,149.83992 2,149.5 1.3537268,149.10058 1,130.17195 1,95.987987 V 43.094008 l 3.75,-1.041427 c 5.530702,-1.535953 19.705952,-1.306739 23.752652,0.384081 l 3.438416,1.436661 0.279466,13.313339 L 32.5,70.5 l 8.450164,0.293676 c 4.64759,0.161523 9.03509,0.779123 9.75,1.372445 C 51.632708,72.940065 52,76.591159 52,85.087261 52,99.182502 52.156549,99 40.065741,99 H 32 l 0.02196,22.25 c 0.01942,19.67148 0.241484,22.73349 1.916206,26.42204 2.426388,5.34409 5.714998,7.44723 12.842868,8.21331 L 52.5,156.5 l 0.277457,14.25 0.277456,14.25 -7.777456,-0.115 c -4.277602,-0.0632 -9.409769,-0.43344 -11.404816,-0.82265 z m 25.794026,0.27098 C 59.3,183.96667 59,158.31667 59,127.33333 V 71 h 15.393011 c 13.113923,0 15.482882,0.234199 16,1.581787 1.143806,2.98071 0.681465,105.906123 -0.490836,109.268993 L 88.80435,185 H 74.568842 c -7.82953,0 -14.535509,-0.3 -14.902175,-0.66667 z M 470.47154,178.5969 c -0.88217,-1.34636 -3.10463,-6.19394 -4.93879,-10.77241 -5.96068,-14.87914 -8.60005,-21.26905 -10.0473,-24.32449 -1.2808,-2.70402 -4.21822,-9.7951 -15.11981,-36.5 -1.90845,-4.675 -3.82932,-9.175 -4.2686,-10 C 434.5046,94.009291 428,77.222858 428,76.103951 c 0,-0.832943 5.14375,-1.073402 18.7392,-0.876016 L 465.47841,75.5 470.71499,90 c 2.88012,7.975 6.39508,17.65 7.81101,21.5 1.41593,3.85 4.40291,12.175 6.63773,18.5 2.23481,6.325 4.42393,11.88921 4.86469,12.3649 1.12791,1.21731 3.11604,-3.00551 8.43272,-17.91126 2.54122,-7.1245 5.2389,-14.52864 5.99485,-16.45364 2.02577,-5.15856 2.46596,-6.33748 7.46779,-20 L 516.5,75.5 535.25,75.227935 c 10.3125,-0.149636 18.75,-0.0213 18.75,0.285183 0,0.306487 -0.64732,1.553916 -1.43848,2.772065 -0.79116,1.218149 -2.76196,5.589817 -4.37955,9.714817 -3.4574,8.816671 -10.19842,24.6433 -17.76688,41.71322 C 527.43679,136.43049 525,142.20052 525,142.53551 525,143.26408 512.67371,172.00337 510.21816,177 l -1.72003,3.5 -18.21133,0.27241 -18.21132,0.27242 z M 61.264118,57.029817 C 52.150468,51.713725 49.764268,43.050107 54.346091,31.912417 56.893173,25.720859 62.610513,18 64.648313,18 c 0.72247,0 1.601992,1.149112 1.954491,2.553582 0.891457,3.551846 4.203543,2.875972 7.112834,-1.451465 C 75.440878,16.535902 76,14.28631 76,9.9111338 76,6.7249289 76.488351,3.8162166 77.085224,3.4473286 79.073143,2.218727 88.533368,13.315777 92.849528,21.939201 96.70967,29.65153 97,30.807729 97,38.467912 c 0,9.581515 -1.647127,12.93102 -8.84905,17.994929 -3.884459,2.731291 -5.19218,3.066564 -12.985208,3.329142 -8.115546,0.273444 -8.998173,0.09807 -13.901624,-2.762166 z"
       id="path4104"
       inkscape:connector-curvature="0" />
  </g>
</svg>
